<svg width="34" height="34" viewBox="0 0 34 34" fill="none" xmlns="http://www.w3.org/2000/svg">
<g clip-path="url(#clip0_6_145)">
<path d="M0 17C0 19.0794 0.374066 21.0714 1.05739 22.913L17 24.3913L32.9426 22.913C33.6259 21.0714 34 19.0794 34 17C34 14.9205 33.6259 12.9286 32.9426 11.087L17 9.6087L1.05739 11.087C0.374066 12.9286 0 14.9205 0 17H0Z" fill="#FFDA44"/>
<path d="M32.9426 11.087C30.5406 4.61344 24.3094 0 17 0C9.69058 0 3.45935 4.61344 1.05737 11.087H32.9426Z" fill="#D80027"/>
<path d="M1.05737 22.913C3.45935 29.3866 9.69058 34 17 34C24.3094 34 30.5406 29.3866 32.9426 22.913H1.05737Z" fill="#D80027"/>
</g>
<defs>
<clipPath id="clip0_6_145">
<rect width="34" height="34" fill="white"/>
</clipPath>
</defs>
</svg>
